<svg width="30" height="30" viewBox="0 0 30 30" fill="none" xmlns="http://www.w3.org/2000/svg">
<g clip-path="url(#clip0_318_232)">
<path d="M27.8569 0H24.9998C23.8164 0 22.8569 0.959428 22.8569 2.14286V5C22.8569 6.18343 23.8164 7.14286 24.9998 7.14286H27.8569C29.0404 7.14286 29.9998 6.18343 29.9998 5V2.14286C29.9998 0.959428 29.0404 0 27.8569 0Z" fill="white"/>
<path d="M16.4287 0H13.5716C12.3881 0 11.4287 0.959428 11.4287 2.14286V5C11.4287 6.18343 12.3881 7.14286 13.5716 7.14286H16.4287C17.6121 7.14286 18.5716 6.18343 18.5716 5V2.14286C18.5716 0.959428 17.6121 0 16.4287 0Z" fill="white"/>
<path d="M5 0H2.14286C0.959428 0 0 0.959428 0 2.14286V5C0 6.18343 0.959428 7.14286 2.14286 7.14286H5C6.18343 7.14286 7.14286 6.18343 7.14286 5V2.14286C7.14286 0.959428 6.18343 0 5 0Z" fill="white"/>
<path d="M27.8569 22.8571H24.9998C23.8164 22.8571 22.8569 23.8165 22.8569 25V27.8571C22.8569 29.0405 23.8164 30 24.9998 30H27.8569C29.0404 30 29.9998 29.0405 29.9998 27.8571V25C29.9998 23.8165 29.0404 22.8571 27.8569 22.8571Z" fill="white"/>
<path d="M16.4287 22.8571H13.5716C12.3881 22.8571 11.4287 23.8165 11.4287 25V27.8571C11.4287 29.0405 12.3881 30 13.5716 30H16.4287C17.6121 30 18.5716 29.0405 18.5716 27.8571V25C18.5716 23.8165 17.6121 22.8571 16.4287 22.8571Z" fill="white"/>
<path d="M5 22.8571H2.14286C0.959428 22.8571 0 23.8165 0 25V27.8571C0 29.0405 0.959428 30 2.14286 30H5C6.18343 30 7.14286 29.0405 7.14286 27.8571V25C7.14286 23.8165 6.18343 22.8571 5 22.8571Z" fill="white"/>
<path d="M27.8569 11.4286H24.9998C23.8164 11.4286 22.8569 12.388 22.8569 13.5714V16.4286C22.8569 17.612 23.8164 18.5714 24.9998 18.5714H27.8569C29.0404 18.5714 29.9998 17.612 29.9998 16.4286V13.5714C29.9998 12.388 29.0404 11.4286 27.8569 11.4286Z" fill="white"/>
<path d="M16.4287 11.4286H13.5716C12.3881 11.4286 11.4287 12.388 11.4287 13.5714V16.4286C11.4287 17.612 12.3881 18.5714 13.5716 18.5714H16.4287C17.6121 18.5714 18.5716 17.612 18.5716 16.4286V13.5714C18.5716 12.388 17.6121 11.4286 16.4287 11.4286Z" fill="white"/>
<path d="M5 11.4286H2.14286C0.959428 11.4286 0 12.388 0 13.5714V16.4286C0 17.612 0.959428 18.5714 2.14286 18.5714H5C6.18343 18.5714 7.14286 17.612 7.14286 16.4286V13.5714C7.14286 12.388 6.18343 11.4286 5 11.4286Z" fill="white"/>
</g>
<defs>
<clipPath id="clip0_318_232">
<rect width="30" height="30" fill="white"/>
</clipPath>
</defs>
</svg>
