<?xml version='1.0' encoding='iso-8859-1'?>
<!DOCTYPE svg PUBLIC '-//W3C//DTD SVG 1.1//EN' 'http://www.w3.org/Graphics/SVG/1.1/DTD/svg11.dtd'>
<svg version="1.1" xmlns="http://www.w3.org/2000/svg" viewBox="0 0 297 297" xmlns:xlink="http://www.w3.org/1999/xlink" enable-background="new 0 0 297 297">
  <g>
    <path fill="#fff" d="m290.612,52.623l-56.065-49.972c-3.965-3.535-9.951-3.534-13.916-0.001l-56.069,49.972c-2.226,1.984-3.5,4.825-3.5,7.808v86.382c0,5.775 4.683,10.458 10.458,10.458h112.135c5.774,0 10.457-4.683 10.457-10.458v-86.382c-0.001-2.983-1.274-5.823-3.5-7.807z"/>
    <path fill="#fff" d="m106.942,69.021h-66.406c-20.759,0-37.647,16.889-37.647,37.647v120.787h141.702v-120.786c0-20.759-16.889-37.648-37.649-37.648z"/>
    <path fill="#fff" d="m2.889,259.352c0,20.76 16.889,37.648 37.647,37.648h66.406c20.76,0 37.648-16.889 37.648-37.648v-17.255h-141.701v17.255zm63.454-1.12c1.945-1.945 4.644-3.063 7.394-3.063 2.761,0 5.448,1.118 7.393,3.063 1.956,1.945 3.065,4.644 3.065,7.395 0,2.75-1.109,5.448-3.065,7.392-1.944,1.945-4.632,3.065-7.393,3.065-2.75,0-5.448-1.119-7.394-3.065-1.946-1.944-3.064-4.642-3.064-7.392-0.001-2.762 1.118-5.449 3.064-7.395z"/>
    <path fill="#fff" d="M67.987,55.426c5.775,0,10.458-4.682,10.458-10.457V20.916h93.074c5.775,0,10.457-4.683,10.457-10.458S177.295,0,171.52,0   H67.987C62.213,0,57.53,4.683,57.53,10.458v34.511C57.53,50.744,62.213,55.426,67.987,55.426z"/>
    <path fill="#fff" d="m240.54,172.553c-5.775,0-10.457,4.683-10.457,10.458v58.564h-58.563c-5.775,0-10.458,4.682-10.458,10.457 0,5.775 4.683,10.458 10.458,10.458h69.021c5.775,0 10.458-4.683 10.458-10.458v-69.021c-0.001-5.776-4.684-10.458-10.459-10.458z"/>
  </g>
</svg>
