<svg width="31" height="33" viewBox="0 0 31 33" fill="none" xmlns="http://www.w3.org/2000/svg">
<path d="M13.9455 25.4285L13.1789 24.2583L14.0026 23.0016C15.4035 20.8619 17.1342 19.3298 19.0535 18.4751C19.1955 18.4115 19.3396 18.3582 19.4832 18.3026C19.6359 18.2434 19.788 18.1809 19.9434 18.1302C20.8328 17.8382 21.7548 17.6823 22.7002 17.6823C25.243 17.6823 27.6282 18.7639 29.6115 20.7744V1.38744C29.6115 1.21607 29.5293 1.05485 29.3894 0.953947C29.2496 0.853049 29.0707 0.825288 28.9084 0.880809L19.4432 4.03589L10.5155 1.93517C10.4749 1.92556 10.4344 1.92129 10.3938 1.92129C10.3682 1.92129 10.3436 1.93037 10.318 1.93411C10.3041 1.93571 10.2908 1.9309 10.2774 1.93357L0.668009 4.06899C0.424037 4.12398 0.25 4.34019 0.25 4.59057V27.5463C0.25 27.7086 0.323672 27.8613 0.450196 27.9628C0.545756 28.0396 0.663738 28.0802 0.783855 28.0802C0.822293 28.0802 0.861264 28.0759 0.899702 28.0679L10.4061 25.9555L14.9187 26.752C14.5797 26.3393 14.2541 25.8999 13.9455 25.4285ZM12.2858 24.8429L12.5522 25.2492L10.9271 24.9625V3.12887L18.9349 5.01285V17.3593C16.6879 18.2738 14.686 20.0078 13.11 22.4155L12.2863 23.6722C12.053 24.0282 12.053 24.4874 12.2858 24.8429Z" fill="white"/>
<path d="M30.0587 23.8794C28.1838 21.0158 25.6811 19.3998 22.9846 19.2936C22.8405 19.2765 22.6947 19.2653 22.5463 19.2653C22.2842 19.2653 22.029 19.2936 21.7824 19.3459C19.3293 19.663 17.07 21.2421 15.343 23.8794L15.0942 24.2589L15.2859 24.5515C17.2265 27.5155 19.8391 29.1475 22.644 29.1475C25.4484 29.1475 28.0616 27.5149 30.0021 24.5515L30.2509 24.1719L30.0587 23.8794ZM25.167 22.9531C25.167 24.3983 23.9915 25.5738 22.5463 25.5738C21.1012 25.5738 19.9256 24.3983 19.9256 22.9531C19.9256 21.7023 20.8076 20.6565 21.982 20.397C22.2201 20.3687 22.4598 20.3506 22.7017 20.3506C22.715 20.3506 22.7284 20.3517 22.7417 20.3522C24.094 20.4536 25.167 21.5747 25.167 22.9531ZM22.644 28.0797C20.302 28.0797 18.086 26.7254 16.3744 24.2568C17.2067 23.0364 18.1618 22.0845 19.1932 21.4252C18.9796 21.8918 18.8574 22.4081 18.8574 22.9537C18.8574 24.9877 20.5123 26.6421 22.5458 26.6421C24.5792 26.6421 26.2342 24.9871 26.2342 22.9537C26.2342 22.3045 26.0644 21.6954 25.7687 21.1647C26.9453 21.8091 28.0333 22.8234 28.9697 24.1741C27.2512 26.6949 25.0122 28.0797 22.644 28.0797Z" fill="white"/>
</svg>
